<svg width="358" height="531" viewBox="0 0 358 531" fill="none" xmlns="http://www.w3.org/2000/svg">
<path fill-rule="evenodd" clip-rule="evenodd" d="M0 531H358V3.69123C350 1.2805 341.625 0 333 0C287.972 0 249.758 34.8987 236.234 83.3161C226.842 99.6449 220.134 118.901 216.997 139.891C158.611 147.108 112.298 197.373 105.785 260.654C51.6379 269.831 8.87785 316.205 0.494141 374.879C0.329128 375.008 0.164414 375.137 0 375.267V531Z" fill="#DCF8C6"/>
<path fill-rule="evenodd" clip-rule="evenodd" d="M0 531H358V3.69123C350 1.2805 341.625 0 333 0C287.972 0 249.758 34.8987 236.234 83.3161C226.842 99.6449 220.134 118.901 216.997 139.891C158.611 147.108 112.298 197.373 105.785 260.654C51.6379 269.831 8.87785 316.205 0.494141 374.879C0.329128 375.008 0.164414 375.137 0 375.267V531Z" fill="url(#paint0_linear)"/>
<rect y="507" width="358" height="24" fill="#E7FBD8" fill-opacity="0.8"/>
<rect y="507" width="358" height="24" fill="url(#paint1_linear)"/>
<defs>
<linearGradient id="paint0_linear" x1="16" y1="-63.5" x2="362.5" y2="540.5" gradientUnits="userSpaceOnUse">
<stop stop-color="white"/>
<stop offset="1" stop-color="#DCF8C6"/>
</linearGradient>
<linearGradient id="paint1_linear" x1="179" y1="499" x2="179" y2="540.5" gradientUnits="userSpaceOnUse">
<stop stop-color="#DCF8C6"/>
<stop offset="1" stop-color="#FFFCF3"/>
</linearGradient>
</defs>
</svg>
