<svg width="82" height="82" viewBox="0 0 82 82" fill="none" xmlns="http://www.w3.org/2000/svg">
<path d="M43.0066 47.6792L1.9364 50.0807L33.6421 79.7993L36.3177 81L74.0434 77.8481L43.0066 47.6792Z" fill="#1F5C24" stroke="#FFFCF3"/>
<path d="M78.3244 51.5816L44.0769 19.6116L45.2809 11.6566L46.6187 10.606L81 42.2757L79.6622 50.8311L78.3244 51.5816Z" fill="#1F5C24"/>
<path d="M45.2809 11.6566L79.5284 43.1763M45.2809 11.6566L44.0769 19.6116L78.3244 51.5816M45.2809 11.6566L46.6187 10.606L81 42.2757M79.5284 43.1763L78.3244 51.5816M79.5284 43.1763L81 42.2757M78.3244 51.5816L79.6622 50.8311L81 42.2757" stroke="#FFFCF3" stroke-linecap="round" stroke-linejoin="round"/>
<path d="M76.1839 65.0901L41.9364 33.1201L43.1404 25.1652L44.4782 24.1145L78.8595 55.7843L77.5217 64.3396L76.1839 65.0901Z" fill="#1F5C24"/>
<path d="M43.1404 25.1652L77.3879 56.6849M43.1404 25.1652L41.9364 33.1201L76.1839 65.0901M43.1404 25.1652L44.4782 24.1145L78.8595 55.7843M77.3879 56.6849L76.1839 65.0901M77.3879 56.6849L78.8595 55.7843M76.1839 65.0901L77.5217 64.3396L78.8595 55.7843" stroke="#FFFCF3" stroke-linecap="round" stroke-linejoin="round"/>
<path fill-rule="evenodd" clip-rule="evenodd" d="M4.47815 50.9812L42.3377 47.8292L49.1604 12.1069L43.2741 2.20068L16.6521 3.55153L10.3644 11.2063L4.47815 50.9812ZM21.3817 8.67989L21.2655 8.82888C21.0447 9.11201 20.8592 9.42095 20.713 9.74891L20.2509 10.7857C20.1715 10.9641 20.1304 11.1572 20.1304 11.3525C20.1304 11.738 20.2902 12.1063 20.5718 12.3696L20.7105 12.4992C20.8579 12.637 21.027 12.7495 21.211 12.832L21.2257 12.8386C21.4737 12.9499 21.7425 13.0075 22.0144 13.0075H23.6086H25.8829H28.1571H30.03H31.2821C31.5168 13.0075 31.7505 12.9788 31.9782 12.922L32.0198 12.9116C32.5538 12.7785 33.0353 12.4876 33.4014 12.0768C33.6485 11.7996 33.8366 11.4751 33.9543 11.1229L33.9999 10.9864C34.1173 10.6351 34.1772 10.267 34.1772 9.89652V9.55534V8.9991C34.1772 8.68065 34.0601 8.37331 33.8482 8.13559C33.8001 8.08156 33.7475 8.03165 33.691 7.98638L33.5955 7.90984C33.1061 7.51764 32.4977 7.30393 31.8705 7.30393H31.6354H24.1997C23.6353 7.30393 23.0789 7.43761 22.5761 7.69402C22.1107 7.93138 21.703 8.26791 21.3817 8.67989Z" fill="#1F5C24"/>
<path d="M42.3377 47.8292L42.3792 48.3275C42.6028 48.3089 42.7867 48.1435 42.8288 47.923L42.3377 47.8292ZM4.47815 50.9812L3.98354 50.908C3.96119 51.059 4.00905 51.2119 4.11349 51.3233C4.21793 51.4346 4.36751 51.4921 4.51963 51.4794L4.47815 50.9812ZM49.1604 12.1069L49.6515 12.2007C49.6745 12.0807 49.6527 11.9565 49.5903 11.8515L49.1604 12.1069ZM43.2741 2.20068L43.704 1.94527C43.6092 1.78583 43.434 1.69193 43.2488 1.70133L43.2741 2.20068ZM16.6521 3.55153L16.6267 3.05217C16.4861 3.0593 16.355 3.12538 16.2657 3.23417L16.6521 3.55153ZM10.3644 11.2063L9.97807 10.8889C9.92051 10.959 9.8831 11.0434 9.86982 11.1331L10.3644 11.2063ZM21.2655 8.82888L20.8712 8.52139L20.8712 8.52139L21.2655 8.82888ZM21.3817 8.67989L21.776 8.98738L21.776 8.98738L21.3817 8.67989ZM20.713 9.74891L21.1697 9.95244V9.95244L20.713 9.74891ZM20.2509 10.7857L19.7942 10.5822V10.5822L20.2509 10.7857ZM20.5718 12.3696L20.9133 12.0043V12.0043L20.5718 12.3696ZM20.7105 12.4992L21.052 12.134L20.7105 12.4992ZM21.211 12.832L21.0063 13.2882L21.0063 13.2882L21.211 12.832ZM21.2257 12.8386L21.4304 12.3825L21.4304 12.3825L21.2257 12.8386ZM31.9782 12.922L31.8572 12.4369L31.8572 12.4369L31.9782 12.922ZM32.0198 12.9116L32.1408 13.3968L32.1408 13.3968L32.0198 12.9116ZM33.4014 12.0768L33.0282 11.7441L33.0282 11.7441L33.4014 12.0768ZM33.9543 11.1229L34.4285 11.2814L33.9543 11.1229ZM33.9999 10.9864L33.5257 10.8279L33.9999 10.9864ZM33.8482 8.13559L34.2215 7.8029L34.2215 7.8029L33.8482 8.13559ZM33.691 7.98638L34.0037 7.59622L34.0037 7.59621L33.691 7.98638ZM33.5955 7.90984L33.2828 8.30001L33.2828 8.30001L33.5955 7.90984ZM22.5761 7.69402L22.8033 8.13945V8.13945L22.5761 7.69402ZM42.2962 47.3309L4.43667 50.4829L4.51963 51.4794L42.3792 48.3275L42.2962 47.3309ZM48.6693 12.0131L41.8466 47.7354L42.8288 47.923L49.6515 12.2007L48.6693 12.0131ZM42.8443 2.4561L48.7306 12.3623L49.5903 11.8515L43.704 1.94527L42.8443 2.4561ZM16.6774 4.05089L43.2995 2.70004L43.2488 1.70133L16.6267 3.05217L16.6774 4.05089ZM10.7508 11.5237L17.0384 3.86889L16.2657 3.23417L9.97807 10.8889L10.7508 11.5237ZM4.97276 51.0544L10.859 11.2795L9.86982 11.1331L3.98354 50.908L4.97276 51.0544ZM21.6598 9.13637L21.776 8.98738L20.9874 8.3724L20.8712 8.52139L21.6598 9.13637ZM21.1697 9.95244C21.2993 9.66154 21.4639 9.3875 21.6598 9.13637L20.8712 8.52139C20.6255 8.83651 20.419 9.18037 20.2563 9.54538L21.1697 9.95244ZM20.7076 10.9892L21.1697 9.95244L20.2563 9.54538L19.7942 10.5822L20.7076 10.9892ZM20.6304 11.3525C20.6304 11.2273 20.6567 11.1036 20.7076 10.9892L19.7942 10.5822C19.6862 10.8246 19.6304 11.0871 19.6304 11.3525H20.6304ZM20.9133 12.0043C20.7328 11.8356 20.6304 11.5996 20.6304 11.3525H19.6304C19.6304 11.8765 19.8476 12.377 20.2303 12.7348L20.9133 12.0043ZM21.052 12.134L20.9133 12.0043L20.2303 12.7348L20.369 12.8645L21.052 12.134ZM21.4157 12.3759C21.282 12.3159 21.1591 12.2341 21.052 12.134L20.369 12.8645C20.5566 13.0399 20.772 13.1831 21.0063 13.2882L21.4157 12.3759ZM21.4304 12.3825L21.4157 12.3759L21.0063 13.2882L21.0209 13.2948L21.4304 12.3825ZM22.0144 12.5075C21.8131 12.5075 21.614 12.4649 21.4304 12.3825L21.0209 13.2948C21.3334 13.435 21.6719 13.5075 22.0144 13.5075V12.5075ZM23.6086 12.5075H22.0144V13.5075H23.6086V12.5075ZM25.8829 12.5075H23.6086V13.5075H25.8829V12.5075ZM28.1571 12.5075H25.8829V13.5075H28.1571V12.5075ZM30.03 12.5075H28.1571V13.5075H30.03V12.5075ZM31.2821 12.5075H30.03V13.5075H31.2821V12.5075ZM31.8572 12.4369C31.6691 12.4838 31.476 12.5075 31.2821 12.5075V13.5075C31.5575 13.5075 31.8319 13.4738 32.0991 13.4072L31.8572 12.4369ZM31.8989 12.4265L31.8572 12.4369L32.0991 13.4072L32.1408 13.3968L31.8989 12.4265ZM33.0282 11.7441C32.7289 12.0799 32.3353 12.3177 31.8989 12.4265L32.1408 13.3968C32.7723 13.2394 33.3416 12.8953 33.7747 12.4094L33.0282 11.7441ZM33.48 10.9644C33.3838 11.2523 33.2301 11.5175 33.0282 11.7441L33.7747 12.4094C34.0668 12.0817 34.2893 11.6979 34.4285 11.2814L33.48 10.9644ZM33.5257 10.8279L33.48 10.9644L34.4285 11.2814L34.4741 11.1449L33.5257 10.8279ZM33.6772 9.89652C33.6772 10.2131 33.626 10.5276 33.5257 10.8279L34.4741 11.1449C34.6086 10.7425 34.6772 10.3209 34.6772 9.89652H33.6772ZM33.6772 9.55534V9.89652H34.6772V9.55534H33.6772ZM33.6772 8.9991V9.55534H34.6772V8.9991H33.6772ZM33.475 8.46827C33.6052 8.61441 33.6772 8.80334 33.6772 8.9991H34.6772C34.6772 8.55796 34.515 8.13222 34.2215 7.8029L33.475 8.46827ZM33.3783 8.37655C33.413 8.40437 33.4454 8.43506 33.475 8.46828L34.2215 7.8029C34.1548 7.72806 34.0819 7.65892 34.0037 7.59622L33.3783 8.37655ZM33.2828 8.30001L33.3783 8.37655L34.0037 7.59621L33.9081 7.51967L33.2828 8.30001ZM31.8705 7.80393C32.384 7.80393 32.8821 7.9789 33.2828 8.30001L33.9081 7.51967C33.33 7.05638 32.6113 6.80393 31.8705 6.80393V7.80393ZM31.6354 7.80393H31.8705V6.80393H31.6354V7.80393ZM24.1997 7.80393H31.6354V6.80393H24.1997V7.80393ZM22.8033 8.13945C23.2358 7.91891 23.7143 7.80393 24.1997 7.80393V6.80393C23.5564 6.80393 22.9221 6.95631 22.349 7.2486L22.8033 8.13945ZM21.776 8.98738C22.0523 8.63304 22.403 8.3436 22.8033 8.13945L22.349 7.2486C21.8184 7.51917 21.3537 7.90278 20.9874 8.3724L21.776 8.98738Z" fill="#FFFCF3"/>
<path d="M31.5016 7.60414V7.30396H31.875C32.0714 7.30396 32.2672 7.32565 32.4588 7.36865L32.4756 7.37241C32.7168 7.42655 32.9489 7.5155 33.1646 7.63648L33.2284 7.67228C33.3256 7.7268 33.4174 7.79035 33.5027 7.8621C33.7682 8.08547 33.9623 8.38177 34.0611 8.71433L34.0898 8.81093C34.1478 9.006 34.1772 9.20844 34.1772 9.41194V9.70546C34.1772 10.1036 34.1196 10.4997 34.0062 10.8813L33.9096 11.2064L33.7998 11.4528C33.6953 11.6874 33.5551 11.9044 33.3842 12.0961L33.3452 12.1399C33.1875 12.3168 33.0014 12.4663 32.7947 12.5823C32.6467 12.6654 32.4892 12.7305 32.3258 12.7764L32.0745 12.8468C31.6944 12.9535 31.3014 13.0075 30.9066 13.0075H22.167C21.9696 13.0075 21.7717 12.9801 21.5817 12.9268C21.4182 12.8809 21.2596 12.8155 21.1115 12.7324C20.9048 12.6164 20.7188 12.4669 20.5611 12.29L20.1304 11.8068H25.214H28.6643C28.8607 11.8068 29.0565 11.7851 29.2481 11.7421L29.2877 11.7332C29.5138 11.6824 29.7314 11.5991 29.9335 11.4857C30.0866 11.3998 30.2297 11.2973 30.3604 11.1801L30.4581 11.0924C30.7059 10.8699 30.9131 10.6059 31.0701 10.3122C31.179 10.1086 31.2629 9.89254 31.3198 9.66879L31.3657 9.48856C31.456 9.13423 31.5016 8.77002 31.5016 8.40438V7.60414Z" fill="#1F5C24" stroke="#FFFCF3" stroke-linecap="round" stroke-linejoin="round"/>
<path d="M40.5986 1L43.2742 2.20075L16.6521 3.55159L10.3645 11.2064L4.4782 50.9812L1.80261 49.7805L7.6889 10.0056L13.9765 2.35084L40.5986 1Z" fill="#1F5C24"/>
<path d="M13.9765 2.35084L40.5986 1L43.2742 2.20075L16.6521 3.55159M13.9765 2.35084L7.6889 10.0056M13.9765 2.35084L16.6521 3.55159M7.6889 10.0056L1.80261 49.7805L4.4782 50.9812L10.3645 11.2064M7.6889 10.0056L10.3645 11.2064M10.3645 11.2064L16.6521 3.55159" stroke="#FFFCF3" stroke-linecap="round"/>
<path fill-rule="evenodd" clip-rule="evenodd" d="M36.3177 81L74.1773 77.848L81 42.1257L75.1137 32.2195L48.4917 33.5703L42.204 41.2251L36.3177 81ZM53.2212 38.6987L53.105 38.8477C52.8842 39.1308 52.6986 39.4397 52.5525 39.7677L52.0904 40.8045C52.0109 40.9829 51.9698 41.176 51.9698 41.3713C51.9698 41.7568 52.1297 42.1251 52.4113 42.3883L52.55 42.518C52.6973 42.6558 52.8664 42.7682 53.0505 42.8508L53.0651 42.8574C53.3132 42.9687 53.582 43.0263 53.8539 43.0263H55.4481H57.7224H59.9966H61.8695H63.1216C63.3562 43.0263 63.59 42.9976 63.8176 42.9408L63.8593 42.9304C64.3933 42.7973 64.8747 42.5063 65.2409 42.0955C65.4879 41.8184 65.676 41.4938 65.7937 41.1417L65.8393 41.0052C65.9568 40.6538 66.0167 40.2858 66.0167 39.9153V39.5741V39.0179C66.0167 38.6994 65.8996 38.3921 65.6877 38.1544C65.6395 38.1003 65.5869 38.0504 65.5305 38.0052L65.4349 37.9286C64.9456 37.5364 64.3371 37.3227 63.71 37.3227H63.4749H56.0392C55.4748 37.3227 54.9184 37.4564 54.4156 37.7128C53.9502 37.9502 53.5425 38.2867 53.2212 38.6987Z" fill="#1F5C24"/>
<path d="M74.1773 77.848L74.2188 78.3463C74.4424 78.3277 74.6263 78.1623 74.6684 77.9418L74.1773 77.848ZM36.3177 81L35.8231 80.9268C35.8008 81.0778 35.8486 81.2307 35.9531 81.3421C36.0575 81.4534 36.2071 81.5109 36.3592 81.4982L36.3177 81ZM81 42.1257L81.4911 42.2195C81.5141 42.0995 81.4923 41.9753 81.4299 41.8703L81 42.1257ZM75.1137 32.2195L75.5436 31.9641C75.4488 31.8046 75.2736 31.7107 75.0884 31.7201L75.1137 32.2195ZM48.4917 33.5703L48.4663 33.071C48.3257 33.0781 48.1946 33.1442 48.1053 33.253L48.4917 33.5703ZM42.204 41.2251L41.8177 40.9077C41.7601 40.9778 41.7227 41.0622 41.7094 41.1519L42.204 41.2251ZM53.105 38.8477L52.7107 38.5402L52.7107 38.5402L53.105 38.8477ZM53.2212 38.6987L53.6154 39.0062L53.6154 39.0062L53.2212 38.6987ZM52.5525 39.7677L53.0092 39.9712V39.9712L52.5525 39.7677ZM52.0904 40.8045L51.6337 40.601V40.601L52.0904 40.8045ZM52.4113 42.3883L52.7528 42.0231V42.0231L52.4113 42.3883ZM52.55 42.518L52.8915 42.1528L52.55 42.518ZM53.0505 42.8508L53.2552 42.3947L53.2552 42.3946L53.0505 42.8508ZM53.0651 42.8574L52.8604 43.3136L52.8604 43.3136L53.0651 42.8574ZM63.8176 42.9408L63.6967 42.4557L63.6967 42.4557L63.8176 42.9408ZM63.8593 42.9304L63.9803 43.4156L63.9803 43.4156L63.8593 42.9304ZM65.2409 42.0955L64.8676 41.7628L64.8676 41.7628L65.2409 42.0955ZM65.7937 41.1417L65.3195 40.9832L65.7937 41.1417ZM65.8393 41.0052L65.3651 40.8467L65.8393 41.0052ZM65.6877 38.1544L66.061 37.8217L66.0609 37.8217L65.6877 38.1544ZM65.5305 38.0052L65.8431 37.615V37.615L65.5305 38.0052ZM65.4349 37.9286L65.1223 38.3188L65.1223 38.3188L65.4349 37.9286ZM54.4156 37.7128L54.6428 38.1582V38.1582L54.4156 37.7128ZM74.1358 77.3497L36.2763 80.5017L36.3592 81.4982L74.2188 78.3463L74.1358 77.3497ZM80.5089 42.0319L73.6862 77.7542L74.6684 77.9418L81.4911 42.2195L80.5089 42.0319ZM74.6839 32.4749L80.5702 42.3811L81.4299 41.8703L75.5436 31.9641L74.6839 32.4749ZM48.517 34.0697L75.1391 32.7188L75.0884 31.7201L48.4663 33.071L48.517 34.0697ZM42.5904 41.5425L48.878 33.8877L48.1053 33.253L41.8177 40.9077L42.5904 41.5425ZM36.8124 81.0732L42.6986 41.2983L41.7094 41.1519L35.8231 80.9268L36.8124 81.0732ZM53.4992 39.1551L53.6154 39.0062L52.8269 38.3912L52.7107 38.5402L53.4992 39.1551ZM53.0092 39.9712C53.1388 39.6803 53.3034 39.4063 53.4992 39.1551L52.7107 38.5402C52.4649 38.8553 52.2584 39.1991 52.0958 39.5642L53.0092 39.9712ZM52.5471 41.008L53.0092 39.9712L52.0958 39.5642L51.6337 40.601L52.5471 41.008ZM52.4698 41.3713C52.4698 41.2461 52.4962 41.1223 52.5471 41.008L51.6337 40.601C51.5257 40.8434 51.4698 41.1058 51.4698 41.3713H52.4698ZM52.7528 42.0231C52.5723 41.8544 52.4698 41.6183 52.4698 41.3713H51.4698C51.4698 41.8952 51.6871 42.3957 52.0698 42.7536L52.7528 42.0231ZM52.8915 42.1528L52.7528 42.0231L52.0698 42.7536L52.2085 42.8832L52.8915 42.1528ZM53.2552 42.3946C53.1214 42.3346 52.9985 42.2529 52.8915 42.1528L52.2085 42.8832C52.3961 43.0587 52.6114 43.2018 52.8457 43.307L53.2552 42.3946ZM53.2699 42.4012L53.2552 42.3947L52.8457 43.307L52.8604 43.3136L53.2699 42.4012ZM53.8539 42.5263C53.6525 42.5263 53.4535 42.4837 53.2699 42.4012L52.8604 43.3136C53.1728 43.4538 53.5114 43.5263 53.8539 43.5263V42.5263ZM55.4481 42.5263H53.8539V43.5263H55.4481V42.5263ZM57.7224 42.5263H55.4481V43.5263H57.7224V42.5263ZM59.9966 42.5263H57.7224V43.5263H59.9966V42.5263ZM61.8695 42.5263H59.9966V43.5263H61.8695V42.5263ZM63.1216 42.5263H61.8695V43.5263H63.1216V42.5263ZM63.6967 42.4557C63.5086 42.5026 63.3155 42.5263 63.1216 42.5263V43.5263C63.397 43.5263 63.6714 43.4926 63.9386 43.426L63.6967 42.4557ZM63.7384 42.4453L63.6967 42.4557L63.9386 43.426L63.9803 43.4156L63.7384 42.4453ZM64.8676 41.7628C64.5683 42.0986 64.1748 42.3364 63.7383 42.4453L63.9803 43.4156C64.6117 43.2581 65.1811 42.914 65.6141 42.4282L64.8676 41.7628ZM65.3195 40.9832C65.2233 41.271 65.0696 41.5363 64.8676 41.7628L65.6141 42.4282C65.9063 42.1004 66.1287 41.7166 66.2679 41.3002L65.3195 40.9832ZM65.3651 40.8467L65.3195 40.9832L66.2679 41.3002L66.3136 41.1637L65.3651 40.8467ZM65.5167 39.9153C65.5167 40.2319 65.4655 40.5464 65.3651 40.8467L66.3136 41.1637C66.4481 40.7612 66.5167 40.3397 66.5167 39.9153H65.5167ZM65.5167 39.5741V39.9153H66.5167V39.5741H65.5167ZM65.5167 39.0179V39.5741H66.5167V39.0179H65.5167ZM65.3144 38.487C65.4447 38.6332 65.5167 38.8221 65.5167 39.0179H66.5167C66.5167 38.5767 66.3545 38.151 66.061 37.8217L65.3144 38.487ZM65.2178 38.3953C65.2525 38.4231 65.2848 38.4538 65.3144 38.4871L66.0609 37.8217C65.9942 37.7468 65.9214 37.6777 65.8431 37.615L65.2178 38.3953ZM65.1223 38.3188L65.2178 38.3953L65.8431 37.615L65.7476 37.5384L65.1223 38.3188ZM63.71 37.8227C64.2234 37.8227 64.7216 37.9977 65.1223 38.3188L65.7476 37.5384C65.1695 37.0752 64.4508 36.8227 63.71 36.8227V37.8227ZM63.4749 37.8227H63.71V36.8227H63.4749V37.8227ZM56.0392 37.8227H63.4749V36.8227H56.0392V37.8227ZM54.6428 38.1582C55.0752 37.9377 55.5538 37.8227 56.0392 37.8227V36.8227C55.3958 36.8227 54.7616 36.9751 54.1885 37.2674L54.6428 38.1582ZM53.6154 39.0062C53.8918 38.6518 54.2425 38.3624 54.6428 38.1582L54.1885 37.2674C53.6579 37.5379 53.1931 37.9216 52.8269 38.3912L53.6154 39.0062Z" fill="#FFFCF3"/>
<path d="M63.3412 37.6229V37.3228H63.7146C63.911 37.3228 64.1068 37.3445 64.2984 37.3874L64.3152 37.3912C64.5564 37.4453 64.7885 37.5343 65.0042 37.6553L65.068 37.6911C65.1652 37.7456 65.257 37.8091 65.3423 37.8809C65.6078 38.1043 65.8019 38.4006 65.9007 38.7331L65.9294 38.8297C65.9874 39.0248 66.0168 39.2272 66.0168 39.4307V39.7243C66.0168 40.1224 65.9592 40.5185 65.8458 40.9001L65.7492 41.2252L65.6394 41.4716C65.5349 41.7062 65.3947 41.9232 65.2238 42.1149L65.1848 42.1587C65.0271 42.3356 64.841 42.4851 64.6343 42.6011C64.4863 42.6842 64.3288 42.7493 64.1654 42.7952L63.9141 42.8656C63.534 42.9723 63.141 43.0263 62.7462 43.0263H54.0066C53.8092 43.0263 53.6113 42.9989 53.4213 42.9456C53.2578 42.8997 53.0992 42.8343 52.9511 42.7512C52.7444 42.6352 52.5584 42.4857 52.4007 42.3088L51.97 41.8256H57.0536H60.5039C60.7003 41.8256 60.8961 41.8039 61.0877 41.7609L61.1273 41.752C61.3534 41.7012 61.571 41.6179 61.7731 41.5045C61.9262 41.4186 62.0693 41.3161 62.2 41.1989L62.2977 41.1112C62.5455 40.8887 62.7527 40.6247 62.9097 40.331C63.0186 40.1274 63.1025 39.9113 63.1594 39.6876L63.2053 39.5074C63.2956 39.153 63.3412 38.7888 63.3412 38.4232V37.6229Z" fill="#1F5C24" stroke="#FFFCF3" stroke-linecap="round" stroke-linejoin="round"/>
<path d="M72.4381 31.0188L75.1137 32.2195L48.4916 33.5704L42.204 41.2252L36.3177 81L33.6421 79.7993L39.5284 40.0244L45.816 32.3696L72.4381 31.0188Z" fill="#1F5C24"/>
<path d="M45.816 32.3696L72.4381 31.0188L75.1137 32.2195L48.4916 33.5704M45.816 32.3696L39.5284 40.0244M45.816 32.3696L48.4916 33.5704M39.5284 40.0244L33.6421 79.7993L36.3177 81L42.204 41.2252M39.5284 40.0244L42.204 41.2252M42.204 41.2252L48.4916 33.5704" stroke="#FFFCF3" stroke-linecap="round"/>
<path d="M35.2475 81L1 49.03L2.20401 41.0751L3.54181 40.0244L37.9231 71.6942L36.5853 80.2495L35.2475 81Z" fill="#1F5C24"/>
<path d="M2.20401 41.0751L36.4515 72.5948M2.20401 41.0751L1 49.03L35.2475 81M2.20401 41.0751L3.54181 40.0244L37.9231 71.6942M36.4515 72.5948L35.2475 81M36.4515 72.5948L37.9231 71.6942M35.2475 81L36.5853 80.2496L37.9231 71.6942" stroke="#FFFCF3" stroke-linecap="round" stroke-linejoin="round"/>
<path d="M37.388 66.591L3.1405 34.621L4.34452 26.666L5.68231 25.6154L40.0636 57.2851L38.7258 65.8405L37.388 66.591Z" fill="#1F5C24"/>
<path d="M4.34452 26.666L38.592 58.1857M4.34452 26.666L3.1405 34.621L37.388 66.591M4.34452 26.666L5.68231 25.6154L40.0636 57.2851M38.592 58.1857L37.388 66.591M38.592 58.1857L40.0636 57.2851M37.388 66.591L38.7258 65.8405L40.0636 57.2851" stroke="#FFFCF3" stroke-linecap="round" stroke-linejoin="round"/>
<path d="M39.5284 50.9812L5.28088 19.0112L6.4849 11.0563L7.82269 10.0056L42.204 41.6754L40.8662 50.2308L39.5284 50.9812Z" fill="#1F5C24"/>
<path d="M6.4849 11.0563L40.7324 42.576M6.4849 11.0563L5.28088 19.0112L39.5284 50.9812M6.4849 11.0563L7.82269 10.0056L42.204 41.6754M40.7324 42.576L39.5284 50.9812M40.7324 42.576L42.204 41.6754M39.5284 50.9812L40.8662 50.2308L42.204 41.6754" stroke="#FFFCF3" stroke-linecap="round" stroke-linejoin="round"/>
</svg>
