<svg width="57" height="57" viewBox="0 0 57 57" fill="none" xmlns="http://www.w3.org/2000/svg">
<circle cx="28.5" cy="28.5" r="28.5" fill="#FFFCF3"/>
<path d="M26.2487 32.4301V48H33.1955V32.4301H37.8885L38.7839 26.318H33.1955V21.7178L33.2573 21.2031L33.3499 20.7849L33.5352 20.3667L33.7204 20.0129L34.0292 19.7555L34.4305 19.466L34.9863 19.2086L35.5729 19.08H39V13.4825L37.9503 13.3217L36.9005 13.1608L35.6655 13H33.6278L32.8868 13.0643L32.4237 13.1608L31.1578 13.5469L30.2007 13.9329L29.3053 14.4798L28.4099 15.3162L27.7307 16.0561L27.0515 17.3107L26.5575 18.5653L26.2487 20.0129V26.1893L21 26.3824V32.4301H26.2487Z" fill="#1F5C24" stroke="#1F5C24"/>
</svg>
