<svg width="57" height="57" viewBox="0 0 57 57" fill="none" xmlns="http://www.w3.org/2000/svg">
<circle cx="28.5" cy="28.5" r="28.5" fill="#FFFCF3"/>
<g clip-path="url(#clip0)">
<path d="M39.2384 10.7983H18.7616C14.3929 10.7983 10.8513 14.2386 10.8513 18.4823V39.5094C10.8513 43.7531 14.3929 47.1933 18.7616 47.1933H39.2384C43.6071 47.1933 47.1487 43.7531 47.1487 39.5094V18.4823C47.1487 14.2386 43.6071 10.7983 39.2384 10.7983Z" stroke="#1F5C24" stroke-width="5"/>
<path d="M29.1169 37.4225C33.908 37.4225 37.7919 33.6497 37.7919 28.9957C37.7919 24.3417 33.908 20.5688 29.1169 20.5688C24.3258 20.5688 20.4419 24.3417 20.4419 28.9957C20.4419 33.6497 24.3258 37.4225 29.1169 37.4225Z" stroke="#1F5C24" stroke-width="5"/>
<path d="M40.1112 20.8159C41.5323 20.8159 42.6843 19.6968 42.6843 18.3164C42.6843 16.936 41.5323 15.8169 40.1112 15.8169C38.6901 15.8169 37.5381 16.936 37.5381 18.3164C37.5381 19.6968 38.6901 20.8159 40.1112 20.8159Z" fill="#1F5C24"/>
</g>
<defs>
<clipPath id="clip0">
<rect width="40" height="40" fill="white" transform="translate(9 9)"/>
</clipPath>
</defs>
</svg>
