<svg width="57" height="57" viewBox="0 0 57 57" fill="none" xmlns="http://www.w3.org/2000/svg">
<circle cx="28.5" cy="28.5" r="28.5" fill="#FFFCF3"/>
<path d="M17.7311 35.1382L13.4202 44.7339L23.1387 40.4216" stroke="#1F5C24" stroke-width="4"/>
<path d="M18.4846 41.4303C21.6432 44.2198 25.734 45.6455 29.897 45.4076C34.06 45.1697 37.9709 43.2866 40.8073 40.1545C43.6437 37.0223 45.1849 32.885 45.1065 28.6124C45.0282 24.3397 43.3367 20.2646 40.3875 17.2438C37.4383 14.2231 33.4613 12.4919 29.2924 12.4143C25.1237 12.3368 21.0879 13.9189 18.0337 16.828C14.9796 19.7371 13.1448 23.7467 12.9153 28.0136C12.6858 32.2804 14.0794 36.4724 16.8031 39.708L18.0089 36.5758C15.9953 33.8241 15.6938 31.6613 15.8811 28.1811C15.8811 24.8807 17.5647 21.4307 20.0557 19.058C22.5468 16.6852 25.8384 15.3948 29.2386 15.4581C32.6387 15.5213 35.8825 16.9333 38.2879 19.3971C40.6933 21.8609 42.073 25.1847 42.1369 28.6695C42.2007 32.1544 40.9437 35.5289 38.6303 38.0835C36.3168 40.6382 33.2925 42.4014 29.897 42.5954C26.5016 42.7895 24.0252 42.4627 21.4489 40.1876L18.4846 41.4303Z" fill="#1F5C24"/>
<path d="M18.4846 41.4303C21.6432 44.2198 25.734 45.6455 29.897 45.4076C34.06 45.1697 37.9709 43.2866 40.8073 40.1545C43.6437 37.0223 45.1849 32.885 45.1065 28.6124C45.0282 24.3397 43.3367 20.2646 40.3875 17.2438C37.4383 14.2231 33.4613 12.4919 29.2924 12.4143C25.1237 12.3368 21.0879 13.9189 18.0337 16.828C14.9796 19.7371 13.1448 23.7467 12.9153 28.0136C12.6858 32.2804 14.0794 36.4724 16.8031 39.708L18.0089 36.5758C15.9953 33.8241 15.6938 31.6613 15.8811 28.1811C15.8811 24.8807 17.5647 21.4307 20.0557 19.058C22.5468 16.6852 25.8384 15.3948 29.2386 15.4581C32.6387 15.5213 35.8825 16.9333 38.2879 19.3971C40.6933 21.8609 42.073 25.1847 42.1369 28.6695C42.2007 32.1544 40.9437 35.5289 38.6303 38.0835C36.3168 40.6382 33.2925 42.4014 29.897 42.5954C26.5016 42.7895 24.0252 42.4627 21.4489 40.1876L18.4846 41.4303Z" stroke="#1F5C24"/>
<path d="M23.0254 24.0659V26.7339L23.5289 28.8856L24.4519 30.3487L26.8014 32.9306L29.067 34.5658L30.7452 35.2544H33.0108L34.5212 34.738" stroke="#1F5C24" stroke-width="4"/>
<path d="M21.0897 23.226L20.8999 24.1399H24.8866V24.223V25.303V26.2999L25.0765 25.9676L25.3612 25.8015L25.9308 25.303L26.3105 25.0538L26.6901 24.5553L26.88 23.9738L26.9749 23.3922L26.88 22.9768L26.6901 22.6446L26.4054 22.2291L26.1206 21.9799L25.7409 21.6476L25.2663 21.3153L24.8866 21.066L24.412 20.8999H24.2222H23.273L22.7983 20.983L22.4187 21.1491L21.944 21.4815L21.5644 22.146L21.0897 23.226Z" fill="#1F5C24"/>
<path d="M32.6807 32.7903L32.1008 33.3977L32.6807 34.1785L33.2605 37.0417H33.5918H34.1717L34.9172 36.9549L35.7455 36.6946L36.4081 36.3476L36.8224 36.0873L37.0708 35.7403L37.2365 35.3065L37.3193 34.9594V34.5256V34.0917L37.2365 33.7447L37.0708 33.4845L36.7395 33.0506L36.3253 32.53L35.8283 32.0962L35.3313 31.9227L34.9172 31.8359H34.0888L33.6747 31.9227L33.2605 32.2697L32.6807 32.7903Z" fill="#1F5C24"/>
<path d="M20.0849 42.6678C23.4166 44.9421 27.4528 45.8616 31.4081 45.2473C35.3633 44.6331 38.9546 42.529 41.4831 39.3445C44.0116 36.16 45.2964 32.123 45.0874 28.0191C44.8784 23.9152 43.1907 20.0379 40.3526 17.1418C37.5145 14.2457 33.7292 12.5381 29.7331 12.3511C25.737 12.1641 21.8162 13.5113 18.7337 16.1303C15.651 18.7493 13.6273 22.453 13.056 26.5204C12.4848 30.5878 13.407 34.7281 15.6433 38.1355L19.1858 35.6816C17.5427 33.178 16.8651 30.1358 17.2847 27.1471C17.7045 24.1585 19.1915 21.4371 21.4566 19.5127C23.7215 17.5884 26.6025 16.5985 29.5387 16.7359C32.4749 16.8732 35.2563 18.1281 37.3417 20.256C39.4271 22.384 40.6672 25.2329 40.8207 28.2484C40.9742 31.2639 40.0302 34.2302 38.1724 36.57C36.3145 38.9099 33.6757 40.4559 30.7695 40.9073C27.8632 41.3587 24.8975 40.6831 22.4494 39.0119L20.0849 42.6678Z" fill="#1F5C24"/>
</svg>
